/* XPM */
static char *result[] = {
/* columns rows colors chars-per-pixel */
"64 64 48 1 ",
"  c black",
". c gray8",
"X c #2C240C",
"o c #000034",
"O c #002424",
"+ c #18283C",
"@ c #043C3C",
"# c #202020",
"$ c gray19",
"% c #400000",
"& c #540000",
"* c #6C0000",
"= c #443010",
"- c #583C18",
"; c #742818",
": c #6C4820",
"> c #000050",
", c #00006C",
"< c #0C5858",
"1 c #1C7474",
"2 c gray25",
"3 c gray33",
"4 c #646464",
"5 c #747474",
"6 c #840000",
"7 c #980000",
"8 c #B00000",
"9 c #843824",
"0 c #805028",
"q c #945834",
"w c #985038",
"e c #A8643C",
"r c #C46000",
"t c #AC644C",
"y c #BC7444",
"u c #DCDC00",
"i c #C08068",
"p c #000088",
"a c #0000A4",
"s c #0000C0",
"d c #0000FC",
"f c #309090",
"g c #4CACAC",
"h c #6CC8C8",
"j c #848484",
"k c gray58",
"l c #90E4E4",
"z c None",
/* pixels */
"zzzzzzzzzzzzzzzzzzzzzzz::::zzzzzzzzzz::::zzzzzzzzzzzzzzzzzzzzzzz",
"zzzzzzzzzzzzzzzzzzzzz00000000zzzzzz00000000zzzzzzzzzzzzzzzzzzzzz",
"zzzzzzzzzzzzzzzzzzzzzzzqqqqqqq#22#qqqqqqqzzzzzzzzzzzzzzzzzzzzzzz",
"zzzzzzzzzzzzzzzzzzzzzzzzzeeeee$uu$eeeeezzzzzzzzzzzzzzzzzzzzzzzzz",
"zzzzzzzzzzzzzzzzzzzzzzzzzzzzy-rrrr-yzzzzzzzzzzzzzzzzzzzzzzzzzzzz",
"zzzzzzzzzzzzzzzzzzzzzzzzzzz. 0eeee0 .zzzzzzzzzzzzzzzzzzzzzzzzzzz",
"zzzzzzzzzzzzzzzzzzzzzzzzzzz.$25kk52$.zzzzzzzzzzzzzzzzzzzzzzzzzzz",
"zzzzzzzzzzzzzzzzzzzzzzzzzz.22++++ +22.zzzzzzzzzzzzzzzzzzzzzzzzzz",
"zzzzzzzzzzzzzzzzzzzzzzzz.#$2 %+%%+% 2$#.zzzzzzzzzzzzzzzzzzzzzzzz",
"zzzzzzzzzzzzzzzzzzzzzzzz-0qe%ti6tit%eq0-zzzzzzzzzzzzzzzzzzzzzzzz",
"zzzzzzzzzzzzzzzzzzzzzzzz.#$2+6t&;t6+2$#.zzzzzzzzzzzzzzzzzzzzzzzz",
"zzzzzzzzzzzzzzzzzzzzzzzz.#$2+;*;;*;+2$#.zzzzzzzzzzzzzzzzzzzzzzzz",
"zzzzzzzzzzzzzzzzzzzzzzzzzz  +%;ww;%+  zzzzzzzzzzzzzzzzzzzzzzzzzz",
"zzzzzzzzzzzzzzzzzz.#$23455.#O++%%++O#.55432$#.zzzzzzzzzzzzzzzzzz",
"zzzzzzzzzzzzzzzzzzz&      dd<OO@@OO<dd       zzzzzzzzzzzzzzzzzzz",
"zzzzzzzzzzzzzzzzzz&  .#$%%ss%fhllhf%ss%%  .#..*zzzzzzzzzzzzzzzzz",
"zzzzzzzzzzzzzzzzzz& .#$%%jkj$1fggf1$jjj%$#.$#. *zzzzzzzzzzzzzzzz",
"zzzzzzzzzzzzzzzzz&X #$%%%5sp#$2332$#ps5%%* $3# .*zzzzzzzzzzzzzzz",
"zzzzzzzzzzzzzzzzz& ..# &j$--:0qeeq0:--$4*% $32. *zzzzzzzzzzzzzzz",
"zzzzzzzzzzzzzzzz&X  .. &4$-$$223322$$-$3& $$32. X*zzzzzzzzzzzzzz",
"zzzzzzzzzzzzzzzz&.  .  .2#:$33333333$:#$ &$232#  *zzzzzzzzzzzzzz",
"zzzzzzzzzzzzzzz&X  ..% .$.-#22222222#-.$ %2332  XX*zzzzzzzzzzzzz",
"zzzzzzzzzzzzzzuyy ..%% .#.=.$$$$$$$$.=.#  2432    *zzzzzzzzzzzzz",
"zzzzzzzzzzzzzz&qyyy %%  # X.########.X . #2532   XX*zzzzzzzzzzzz",
"zzzzzzzzzzzzz*& 0qqyyy  . . ........ .   $4jk3     *zzzzzzzzzzzz",
"zzzzzzzzzzzzz& uyyy0qqyy                $45k53   XXX*zzzzzzzzzzz",
"zzzzzzzzzzzzz&X  yyyyy0qqy             $4jk32#     **zzzzzzzzzzz",
"zzzzzzzzzzzzzzX  #.%qyyyyuqr  wwww   $23j522#    XXzzzzzzzzzzzzz",
"zzzzzzzzzzzzzzzz###*%  qr@<fgfg<9$$$244432##   XXzzzzzzzzzzzzzzz",
"zzzzzzzzzzzzzzzz##.* %    @@a@;ww#334332.   %XXzzzzzzzzzzzzzzzzz",
"zzzzzzzzzzzzzzzzz..* %#2    , ;;ww###..#32$#%zzzzzzzzzzzzzzzzzzz",
"zzzzzzzzzzzzzzzzz..%%%#23  2    ;w;..Osss2$#%zzzzzzzzzzzzzzzzzzz",
"zzzzzzzzzzzzzzzzz..%%.$2234322      OOdddf<@@zzzzzzzzzzzzzzzzzzz",
"zzzzzzzzzzzzzzzzz .% .$2 .#$.2%% %     pppfff<zzzzzzzzzzzzzzzzzz",
"zzzzzzzzzzzzzzzzz .% .$2 e:e.2$% %$2. OOO<1fffffurzzzzzzzzzzzzzz",
"zzzzzzzzzzzzzzzzz99% .$2 :r:.2$%o%$2.:r @1@<<<11rrzzzzzzzzzzzzzz",
"zzzzzzzzzzzzzzzz999% .$2 e:e.2$%o%$2.e:e @1f1<@@zzzzzzzzzzzzzzzz",
"zzzzzzzzzzzzzzzz999% .$$ .#$.2$%o%$2.$#. #.@fggf1zzzzzzzzzzzzzzz",
"zzzzzzzzzzzzzzzzz99% .$# .#$.2$%o%$2.$#. #. O<1gggf1zzzzzzzzzzzz",
"zzzzzzzzzzzzzzzzzz9% .# :ere. $%o%$.:ere: . %zz<1fggggf1zzzzzzzz",
"zzzzzzzzzzzzzzzzzzz%  ## .#$.$$%o%$2.$#. #. %zzzzzz1fgggggurzzzz",
"zzzzzzzzzzzzzzzzzzz%%%%%&*6*&%&%o%&%&*6*&%%%%zzzzzzzzz@<11rrzzzz",
"zzzzzzzzzzzzzzzzzzzzz&&>oo,>p,o&oooooooo ozzzzzzzzzzzzzzzzzzzzzz",
"zzzzzzzzzzzzzzzzzzzzzzz>66887p>>oo     zzzzzzzzzzzzzzzzzzzzzzzzz",
"zzzzzzzzzzzzzzzzzzzzzz76&opppp6z%*68**zzzzzzzzzzzzzzzzzzzzzzzzzz",
"zzzzzzzzzzzzzzzzzzzzzz6& p3j5pozoppppo&6zzzzzzzzzzzzzzzzzzzzzzzz",
"zzzzzzzzzzzzzzzzzzzzz&&z.$qyq2ozop5j3p &6zzzzzzzzzzzzzzzzzzzzzzz",
"zzzzzzzzzzzzzzzzzzzzz&z.#2232$ zo2qyq$.z&&zzzzzzzzzzzzzzzzzzzzzz",
"zzzzzzzzzzzzzzzzzzzzzzz.$24y23 z $2322#zz&zzzzzzzzzzzzzzzzzzzzzz",
"zzzzzzzzzzzzzzzzzzzzzzz#$23223.z 32y42$zzzzzzzzzzzzzzzzzzzzzzzzz",
"zzzzzzzzzzzzzzzzzzzzzzz#$22e23#z.32232$#zzzzzzzzzzzzzzzzzzzzzzzz",
"zzzzzzzzzzzzzzzzzzzzzzz.$$222$#z#32e22$#zzzzzzzzzzzzzzzzzzzzzzzz",
"zzzzzzzzzzzzzzzzzzzzzzzz.22q23#z#$222$$.zzzzzzzzzzzzzzzzzzzzzzzz",
"zzzzzzzzzzzzzzzzzzzzzzzz $2222#z#32q22.$zzzzzzzzzzzzzzzzzzzzzzzz",
"zzzzzzzzzzzzzzzzzzzzzzzz #202$zz#2222$ zzzzzzzzzzzzzzzzzzzzzzzzz",
"zzzzzzzzzzzzzzzzzzzzzzzzz.$22#zz$202# zzzzzzzzzzzzzzzzzzzzzzzzzz",
"zzzzzzzzzzzzzzzzzzzzzzzzz #$$.zz#22$.zzzzzzzzzzzzzzzzzzzzzzzzzzz",
"zzzzzzzzzzzzzzzzzzzzzzzzzz.##.zz.$$# zzzzzzzzzzzzzzzzzzzzzzzzzzz",
"zzzzzzzzzzzzzzzzzzzzzzzzzz ##.zz.##.zzzzzzzzzzzzzzzzzzzzzzzzzzzz",
"zzzzzzzzzzzzzzzzzzzzzzzzz.wtw#zz.## zzzzzzzzzzzzzzzzzzzzzzzzzzzz",
"zzzzzzzzzzzzzzzzzzzzzzzz 3534#zz#wtw.zzzzzzzzzzzzzzzzzzzzzzzzzzz",
"zzzzzzzzzzzzzzzzzzzzzzz ;9w#t.zz#4353 zzzzzzzzzzzzzzzzzzzzzzzzzz",
"zzzzzzzzzzzzzzzzzzzzzzz..#$2$#zz.t#w9; zzzzzzzzzzzzzzzzzzzzzzzzz",
"zzzzzzzzzzzzzzzzzzzzzzzzzzzzzzzz#$2$#. zzzzzzzzzzzzzzzzzzzzzzzzz"
};
