/* XPM */
static char *result[] = {
/* columns rows colors chars-per-pixel */
"64 64 51 1 ",
"  c black",
". c gray8",
"X c #2C240C",
"o c #000034",
"O c #002424",
"+ c #18283C",
"@ c #043C3C",
"# c #202020",
"$ c gray19",
"% c #400000",
"& c #540000",
"* c #6C0000",
"= c #443010",
"- c #583C18",
"; c #742818",
": c #6C4820",
"> c #000050",
", c #00006C",
"< c #0C5858",
"1 c #1C7474",
"2 c gray25",
"3 c gray33",
"4 c #646464",
"5 c #747474",
"6 c #840000",
"7 c #980000",
"8 c #B00000",
"9 c #843824",
"0 c #C80000",
"q c #E00000",
"w c #805028",
"e c #945834",
"r c #985038",
"t c #A8643C",
"y c #C46000",
"u c #AC644C",
"i c #BC7444",
"p c #DCDC00",
"a c #C08068",
"s c #000088",
"d c #0000A4",
"f c #0000C0",
"g c #0000DC",
"h c #0000FC",
"j c #309090",
"k c #4CACAC",
"l c #6CC8C8",
"z c #848484",
"x c gray58",
"c c #D49C84",
"v c None",
/* pixels */
"vvvvvvvvvvvvvvvvvvvvvvvvvvvvvvvvvvvvvvvuvvuuvvvvvvvvvvvvvvvvvvvv",
"vvvvvvvvvvvvvvvvvvvvvvvvvvvvvvvvvvvvvvvuvvuuvvvvvvvvvvvvvvvvvvvv",
"vvvvvvvvvvvvvvvvvvvvvvvvvvvvvvvvvvvvvuvuuuuuvvvvvvvvvvvvvvvvvvvv",
"vvvvvvvvvvvvvvvvvvvvvvvvvvtvvvvvvvvvvuvuuuuuvvvvvvvvvvvvvvvvvvvv",
"vvvvvvvvvvvvvvvvvvvvvvvvvwvvvvvvvvvvvuucccuuvvvvvvvvvvvvvvvvvvvv",
"vvvvvvvvvvvvvvvvvvvvvvvv:vvvvvvvvvvvvvuuccrrvvvvvvvvvvvvvvvvvvvv",
"vvvvvvvvvvvvvvvvvvvvv  .v.#vvvvvvvvvvvvv%%%* vvvvvvvvvvvvvvvvvvv",
"vvvvvvvvvvvvvvvvvvv      .w:-=vvvvvvvvvv%%%*+ vvvvvvvvvvvvvvvvvv",
"vvvvvvvvvvvvvvvvvv     &%  4342vvvvvvvvvv+++*& vvvvvvvvvvvvvvvvv",
"vvvvvvvvvvvvvvvvv    &;a9*..xz54#vz52vvvvv%%*6# vvvvvvvvvvvvvvvv",
"vvvvvvvvvvvvvvvvv   &;urru; $#.#35$  $vvvv%%**6#vvvvvvvvvvvvvvvv",
"vvvvvvvvvvvvvvvvv-3 u9&&&rr9   2$         %%%*6# vvvvvvvvvvvvvvv",
"vvvvvvvvvvvvvvvv:vv 9r&a9;;% 43$  #...#$23+%%*&+ vvvvvvvvvvvvvvv",
"vvvvvvvvvvvvvvvwvvv  ;r999%.#. .   ##22$#+6++++%vvvvvvvvvvvvvvvv",
"vvvvvvvvvvvvvvvvvvv   ;;;O#.f..+ 2$. ***6&+*&&%vvvvvvvvvvvvvvvvv",
"vvvvvvvvvvvvvvvvvvv#   ;#j%d54 #$***+66**&&+%vvvvvvvvvvvvvvvvvvv",
"vvvvvvvvvvvvvvvvvvvv#2&&kj*5f*&*&&&%+**&&&%vvvvvvvvvvvvvvvvvvvvv",
"vvvvvvvvvvvvvvvvvvz43 &l234f52***&&%%+%%%vvvvvvvvvvvvvvvvvvvvvvv",
"vvvvvvvvvvvvvvvv$3  %%kl2tiii32****%%%+&vvvvvvvvvvvvvvvvvvvvvvvv",
"vvvvvvvvvvvvvvvv   ..3k$:###i3z$%**%%   &vvvvvvvvvvvvvvvvvvvvvvv",
"vvvvvvvvvvvvvvvv  #6%3 -#222i3z42%**%.   &&vvvvvvvvvvvvvvvvvvvvv",
"vvvvvvvvvvvvvvvvv #6$3.-$232t35z52%%# XX X &vvvvvvvvvvvvvvvvvvvv",
"vvvvvvvvvvvvvvvv  6*$2=#$2332t3z544 $.  XX X&vvvvvvvvvvvvvvvvvvv",
"vvvvvvvvvvvvvvvv # *%$=#$2332e25z3&&&# X  XX X&vvvvvvvvvvvvvvvvv",
"vvvvvvvvvvvvvvv #6*  #X#$$2$$:25z43 2# XX  XX &&vvvvvvvvvvvvvvvv",
"vvvvvvvvvvvvvvv &*&%%.X#$232$:24z4& &#X  XX  &&vvvvvvvvvvvvvvvvv",
"vvvvvvvvvvvvv  %  %%  .X$2333$-25z4#3$ XX  XXXvvvvvvvvvvvvvvvvvv",
"vvvvvvvvvvvv # *% %%%   #$332$=$%%%%%#  XXXXvvvvv@<1jjjjpyvvvvvv",
"vvvvvvvvvvv #* &&%%% XX  #$s2O %sf%     vvv@<1jjjjjjj111yyvvvvvv",
"vvvvvvvvv .**&&    XX      peyj<d>fhjjjjjjjjjjjjj111<<@vvvvvvvvv",
"vvvvvvvv **&&%%%*vv%  X . w@<jkg1jkf,11111111<<@vvvvvvvvvvvvvvvv",
"vvvvvv  % %%%%*vvvv%XX..... @@d,@<1j>fjjjjjjjjjjjjjpyvvvvvvvvvvv",
"vvvvrrr;%% **vvvvvvvvv#2$$.    @@@@@#%%%%%%<<<<<<<<yyvvvvvvvvvvv",
"vvvvvvrrrr9vvvvvvvvvv#23432..     ##%*****%%%vvvvvvvvvvvvvvvvvvv",
"vvvvvv9v9v9vvvvvvvvv.$23432$. % ##%%sssffs  %%%vvvvvvvvvvvvvvvvv",
"vvvvvvvvvvvvvvvvvvv.# .#$.2$%%o%%%o,ssssso 7 vvvvvvvvvvvvvvvvvvv",
"vvvvvvvvvvvvvvvvvv%.# t:t.2$&oooooooss5z3s &7vvvvvvvvvvvvvvvvvvv",
"vvvvvvvvvvvvvvvvvv%# :y:.22&oooooooo.#eie2. &vvvvvvvvvvvvvvvvvvv",
"vvvvvvvvvvvvvvvvv%## t:t.22&ooooooo  #232$   &vvvvvvvvvvvvvvvvvv",
"vvvvvvvvvvvvvvvv%## .#$.22&ooo v     $44i3$   vvvvvvvvvvvvvvvvvv",
"vvvvvvvvvvvvvvvv%## .#$222&ooo v    #234432#   vvvvvvvvvvvvvvvvv",
"vvvvvvvvvvvvvvvv%# tyt:.22&oo  v    #233t32$  vvvvvvvvvvvvvvvvvv",
"vvvvvvvvvvvvvvvv%%#.# .#$&ooo  vv vv#$23322# vvvvvvvvvvvvvvvvvvv",
"vvvvvvvvvvvvvvvvv%%%%&*6*&oo   vvvvvv#$3e22.vvvvvvvvvvvvvvvvvvvv",
"vvvvvvvvvvvvvvvvvvvv*q0876*   vvvvvvv.#232$ vvvvvvvvvvvvvvvvvvvv",
"vvvvvvvvvvvvvvvvvvv& ffff,>o vvvvvvvvv.$w2# vvvvvvvvvvvvvvvvvvvv",
"vvvvvvvvvvvvvvvvvv8*voffoo o  vvvvvvvv $2$.9vvvvvvvvvvvvvvvvvvvv",
"vvvvvvvvvvvvvvvvv8**vvoooo o   vvvvvvv #2$2...vvvvvvvvvvvvvvvvvv",
"vvvvvvvvvvvvvvvvv8*vvvv $#..   vvvvvvvv.$r.....vvvvvvvvvvvvvvvvv",
"vvvvvvvvvvvvvvvvv8vvvvvv $#..  vvvvvvvv  2.....vvvvvvvvvvvvvvvvv",
"vvvvvvvvvvvvvvvvv8vvvvvvv #.. .vvvvvvvv.2......vvvvvvvvvvvvvvvvv",
"vvvvvvvvvvvvvvvvv8vvvvvvvv #... vvvvvvv2......vvvvvvvvvvvvvvvvvv",
"vvvvvvvvvvvvvvvvvvvvvvvvvvv .... vvvvvv.....vvvvvvvvvvvvvvvvvvvv",
"vvvvvvvvvvvvvvvvvvvvvvvvvvvv ....vvvvvv...vvvvvvvvvvvvvvvvvvvvvv",
"vvvvvvvvvvvvvvvvvvvvvvvvvvvv;9;;.vvvvvvvvvvvvvvvvvvvvvvvvvvvvvvv",
"vvvvvvvvvvvvvvvvvvvvvvvvvvvv9999.vvvvvvvvvvvvvvvvvvvvvvvvvvvvvvv",
"vvvvvvvvvvvvvvvvvvvvvvvvvvvv9999.vvvvvvvvvvvvvvvvvvvvvvvvvvvvvvv",
"vvvvvvvvvvvvvvvvvvvvvvvvvvvv####.vvvvvvvvvvvvvvvvvvvvvvvvvvvvvvv",
"vvvvvvvvvvvvvvvvvvvvvvvvvvvv9;#9.vvvvvvvvvvvvvvvvvvvvvvvvvvvvvvv",
"vvvvvvvvvvvvvvvvvvvvvvvvvvvv;9#9.vvvvvvvvvvvvvvvvvvvvvvvvvvvvvvv",
"vvvvvvvvvvvvvvvvvvvvvvvvvvvvv...vvvvvvvvvvvvvvvvvvvvvvvvvvvvvvvv",
"vvvvvvvvvvvvvvvvvvvvvvvvvvvvv234vvvvvvvvvvvvvvvvvvvvvvvvvvvvvvvv",
"vvvvvvvvvvvvvvvvvvvvvvvvvvvvvvvvvvvvvvvvvvvvvvvvvvvvvvvvvvvvvvvv",
"vvvvvvvvvvvvvvvvvvvvvvvvvvvvvvvvvvvvvvvvvvvvvvvvvvvvvvvvvvvvvvvv"
};
