/* XPM */
static char *result[] = {
/* columns rows colors chars-per-pixel */
"64 64 48 1 ",
"  c black",
". c gray8",
"X c #2C240C",
"o c #000034",
"O c #002424",
"+ c #18283C",
"@ c #043C3C",
"# c #202020",
"$ c gray19",
"% c #400000",
"& c #540000",
"* c #6C0000",
"= c #443010",
"- c #583C18",
"; c #742818",
": c #6C4820",
"> c #000050",
", c #00006C",
"< c #0C5858",
"1 c #1C7474",
"2 c gray25",
"3 c gray33",
"4 c #646464",
"5 c #747474",
"6 c #840000",
"7 c #980000",
"8 c #B00000",
"9 c #843824",
"0 c #805028",
"q c #945834",
"w c #985038",
"e c #A8643C",
"r c #C46000",
"t c #AC644C",
"y c #BC7444",
"u c #DCDC00",
"i c #C08068",
"p c #000088",
"a c #0000A4",
"s c #0000C0",
"d c #0000FC",
"f c #309090",
"g c #4CACAC",
"h c #6CC8C8",
"j c #848484",
"k c gray58",
"l c #90E4E4",
"z c None",
/* pixels */
"zzzzzzzzzzzzzzzzzzzzzz::::zzzzzzzzzz::::zzzzzzzzzzzzzzzzzzzzzzzz",
"zzzzzzzzzzzzzzzzzzzz00000000zzzzzz00000000zzzzzzzzzzzzzzzzzzzzzz",
"zzzzzzzzzzzzzzzzzzzzzzqqqqqqq#22#qqqqqqqzzzzzzzzzzzzzzzzzzzzzzzz",
"zzzzzzzzzzzzzzzzzzzzzzzzeeeee$uu$eeeeezzzzzzzzzzzzzzzzzzzzzzzzzz",
"zzzzzzzzzzzzzzzzzzzzzzzzzzzy-rrrr-yzzzzzzzzzzzzzzzzzzzzzzzzzzzzz",
"zzzzzzzzzzzzzzzzzzzzzzzzzz. 0eeee0 .zzzzzzzzzzzzzzzzzzzzzzzzzzzz",
"zzzzzzzzzzzzzzzzzzzzzzzzzz.$25kk52$.zzzzzzzzzzzzzzzzzzzzzzzzzzzz",
"zzzzzzzzzzzzzzzzzzzzzzzzz.22++++ +22.zzzzzzzzzzzzzzzzzzzzzzzzzzz",
"zzzzzzzzzzzzzzzzzzzzzzz.#$2 %+%%+% 2$#.zzzzzzzzzzzzzzzzzzzzzzzzz",
"zzzzzzzzzzzzzzzzzzzzzzz-0qe%ti6tit%eq0-zzzzzzzzzzzzzzzzzzzzzzzzz",
"zzzzzzzzzzzzzzzzzzzzzzz.#$2+6t&;t6+2$#.zzzzzzzzzzzzzzzzzzzzzzzzz",
"zzzzzzzzzzzzzzzzzzzzzzz.#$2+;*;;*;+2$#.zzzzzzzzzzzzzzzzzzzzzzzzz",
"zzzzzzzzzzzzzzzzzzzzzzzzz  +%;ww;%+  zzzzzzzzzzzzzzzzzzzzzzzzzzz",
"zzzzzzzzzzzzzzzzz.#$23455.#O++%%++O#.55432$#.zzzzzzzzzzzzzzzzzzz",
"zzzzzzzzzzzzzzzzzz%   &% dd<OO@@OO<dd       zzzzzzzzzzzzzzzzzzzz",
"zzzzzzzzzzzzzzzzz* $3$%%%ss%fhllhf%ss%%  .#..*zzzzzzzzzzzzzzzzzz",
"zzzzzzzzzzzzzzzz* #34*%&jjj$1fggf1$jjj%$#.$#. *zzzzzzzzzzzzzzzzz",
"zzzzzzzzzzzzzzzz* $34*%%4sp#$2332$#ps5%%* $3$ .*zzzzzzzzzzzzzzzz",
"zzzzzzzzzzzzzzz* .$34.&j2--:0qeeq0:--$4*% $32$ *zzzzzzzzzzzzzzzz",
"zzzzzzzzzzzzzz*XX$34&  4$-$$223322$$-$3&  $322 X*zzzzzzzzzzzzzzz",
"zzzzzzzzzzzzzz* #$24&*%2#:$33333333$:#$ & $232$ *zzzzzzzzzzzzzzz",
"zzzzzzzzzzzzz*XX-23$6 %$#-#22222222#-.$ % #2332XX*zzzzzzzzzzzzzz",
"zzzzzzzzzzzzz*   3uyy% #.=.$$$$$$$$.=.# #  $432  *zzzzzzzzzzzzzz",
"zzzzzzzzzzzz* X $j2qyyy# X.########.X . . #2532 XX*zzzzzzzzzzzzz",
"zzzzzzzzzzzz*X  $j  00qyyy ........ .   . $4jk3   *zzzzzzzzzzzzz",
"zzzzzzzzzzzz* X $22uyyy0qqyy             $45k5$ XXX*zzzzzzzzzzzz",
"zzzzzzzzzzzz*X   $2j2 yyyy0qq           $4jk32.   **zzzzzzzzzzzz",
"zzzzzzzzzzzzzXX  .$j22  qyyyyqr wwww   $3j522#  XXzzzzzzzzzzzzzz",
"zzzzzzzzzzzzzzzz  $2j4*    qr<fgg<9$$$24432## XXzzzzzzzzzzzzzzzz",
"zzzzzzzzzzzzzzzzz..2j5*      @@a@;w#33432.  XXzzzzzzzzzzzzzzzzzz",
"zzzzzzzzzzzzzzzzz .#4j#        , ;;w###.#$#%zzzzzzzzzzzzzzzzzzzz",
"zzzzzzzzzzzzzzzzzz ##w% $2*%%      w;..Oss#%zzzzzzzzzzzzzzzzzzzz",
"zzzzzzzzzzzzzzzzzz #wiii$3322         OOddf<@@zzzzzzzzzzzzzzzzzz",
"zzzzzzzzzzzzzzzzzzz9wi99i#$.2%% %       pppfff<zzzzzzzzzzzzzzzzz",
"zzzzzzzzzzzzzzzzzzz9w9iie:e.2$% %$2.    OO<1ffffurzzzzzzzzzzzzzz",
"zzzzzzzzzzzzzzzzzzz%999 :r:.2$%o%$2.:r:  @1@<<11rrzzzzzzzzzzzzzz",
"zzzzzzzzzzzzzzzzzzz%#99 e:e.2$%>%$2.e:e   @1f1@@zzzzzzzzzzzzzzzz",
"zzzzzzzzzzzzzzzzzzz%.## .#$.2$%>%$2.$#. ## .@fgf11zzzzzzzzzzzzzz",
"zzzzzzzzzzzzzzzzzzz%.## .#$.2$%>%$2.$#. #.   O1gggf1zzzzzzzzzzzz",
"zzzzzzzzzzzzzzzzzzz%.#..ere..#%>%$.:ere: . %zzz<1fgggf11zzzzzzzz",
"zzzzzzzzzzzzzzzzzzz%.## .#$.##%>%$2.$#. #. %zzzzzzz1gggggurzzzzz",
"zzzzzzzzzzzzzzzzzzz%%%******%&&>%&%&*6*&%%%%zzzzzzzzz@<11rrzzzzz",
"zzzzzzzzzzzzzzzzzzzzzo oooooooo>o,p>,oo>&&zzzzzzzzzzzzzzzzzzzzzz",
"zzzzzzzzzzzzzzzzzzzzzzzz     oo>>p78866>zzzzzzzzzzzzzzzzzzzzzzzz",
"zzzzzzzzzzzzzzzzzzzzzzzzz**86*%z6ppppo&67zzzzzzzzzzzzzzzzzzzzzzz",
"zzzzzzzzzzzzzzzzzzzzzzz6&oppppozop5j3p &6zzzzzzzzzzzzzzzzzzzzzzz",
"zzzzzzzzzzzzzzzzzzzzzz6& p3j5pozo2qyq$.z&&zzzzzzzzzzzzzzzzzzzzzz",
"zzzzzzzzzzzzzzzzzzzzz&&z.$qyq2oz $2322#.z&zzzzzzzzzzzzzzzzzzzzzz",
"zzzzzzzzzzzzzzzzzzzzz&zz#2232$ z 32y42$.zzzzzzzzzzzzzzzzzzzzzzzz",
"zzzzzzzzzzzzzzzzzzzzzzzz.#24y23 .32232$#zzzzzzzzzzzzzzzzzzzzzzzz",
"zzzzzzzzzzzzzzzzzzzzzzzz.#23223.#32e22$#zzzzzzzzzzzzzzzzzzzzzzzz",
"zzzzzzzzzzzzzzzzzzzzzzzz.#22e23##$222$$.zzzzzzzzzzzzzzzzzzzzzzzz",
"zzzzzzzzzzzzzzzzzzzzzzzz.#$222$##32q22.zzzzzzzzzzzzzzzzzzzzzzzzz",
"zzzzzzzzzzzzzzzzzzzzzzzzz.22q23##2222$ zzzzzzzzzzzzzzzzzzzzzzzzz",
"zzzzzzzzzzzzzzzzzzzzzzzzz $2222#z$202# zzzzzzzzzzzzzzzzzzzzzzzzz",
"zzzzzzzzzzzzzzzzzzzzzzzzzz #202$z#22$.zzzzzzzzzzzzzzzzzzzzzzzzzz",
"zzzzzzzzzzzzzzzzzzzzzzzzzzz.$22#z.$$# zzzzzzzzzzzzzzzzzzzzzzzzzz",
"zzzzzzzzzzzzzzzzzzzzzzzzzzz #$$.z.##.zzzzzzzzzzzzzzzzzzzzzzzzzzz",
"zzzzzzzzzzzzzzzzzzzzzzzzzzzz.##.z.## zzzzzzzzzzzzzzzzzzzzzzzzzzz",
"zzzzzzzzzzzzzzzzzzzzzzzzzzzz ##.z#wtw.zzzzzzzzzzzzzzzzzzzzzzzzzz",
"zzzzzzzzzzzzzzzzzzzzzzzzzzz.wtw#z#4353 zzzzzzzzzzzzzzzzzzzzzzzzz",
"zzzzzzzzzzzzzzzzzzzzzzzzzz 3534#z.t#w9; zzzzzzzzzzzzzzzzzzzzzzzz",
"zzzzzzzzzzzzzzzzzzzzzzzzz ;9w#t.z#$2$#..zzzzzzzzzzzzzzzzzzzzzzzz",
"zzzzzzzzzzzzzzzzzzzzzzzzz .#$2$#zzzzzzzzzzzzzzzzzzzzzzzzzzzzzzzz"
};
