/* XPM */
static char *result[] = {
/* columns rows colors chars-per-pixel */
"64 64 45 1 ",
"  c black",
". c gray8",
"X c #000034",
"o c #002424",
"O c #043C3C",
"+ c #202020",
"@ c gray19",
"# c #400000",
"$ c #540000",
"% c #6C0000",
"& c #583C18",
"* c #742818",
"= c #6C4820",
"- c #000050",
"; c #00006C",
": c #0C5858",
"> c #1C7474",
", c gray25",
"< c gray33",
"1 c #646464",
"2 c #747474",
"3 c #840000",
"4 c #980000",
"5 c #B00000",
"6 c #843824",
"7 c #C80000",
"8 c #805028",
"9 c #945834",
"0 c #985038",
"q c #A8643C",
"w c #C46000",
"e c #AC644C",
"r c #BC7444",
"t c #DCDC00",
"y c #C08068",
"u c #000088",
"i c #0000A4",
"p c #0000C0",
"a c #0000DC",
"s c #0000FC",
"d c #309090",
"f c #4CACAC",
"g c #848484",
"h c gray58",
"j c None",
/* pixels */
"jjjjjjjjjjjjjjjjjjjjjjjjjjjjjjjjjjjjjjjjjjjjjjjjjjjjjjjjjjjjjjjj",
"jjjjjjjjjjjjjjjjjjjjjjjjjjjjjjjjjjjjjjjjjjjjjjjjjjjjjjjjjjjjjjjj",
"jjjjjjjjjjjjjjjjjjjjjjjjjjjjjjjjjjjjjjjjjjjjjjjjjjjjjjjjjjjjjjjj",
"jjjjjjjjjjjjjjjjjjjjjjjjjjjjjjjjjjjjjjjjjjjjjjjjjjjjjjjjjjjjjjjj",
"jjjjjjjjjjjjjjjjjjjjjjjjjjjjjjjjjjjjjjjjjjjjjjjjjjjjjjjjjjjjjjjj",
"jjjjjjjjjjjjjjjjjjjjjjjjjjjjjjjjjjjjjjjjjjjjjjjjjjjjjjjjjjjjjjjj",
"jjjjjjjjjjjjjjjjjjjjjjjjjjjjjjjjjjjjjjjjjjjjjjjjjjjjjjjjjjjjjjjj",
"jjjjjjjjjjjjjjjjjjjjjjjjjjjjjjjjjjjjjjjjjjjjjjjjjjjjjjjjjjjjjjjj",
"jjjjjjjjjjjjjjjjjjjjjjjjjjjjjjjjjjjjjjjjjjjjjjjjjjjjjjjjjjjjjjjj",
"jjjjjjjjjjjjjjjjjjjjjjjjjjjjjjjjjjjjjjjjjjjjjjjjjjjjjjjjjjjjjjjj",
"jjjjjjjjjjjjjjjjjjjjjjjjjjjjjjjjjjjjjjjjjjjjjjjjjjjjjjjjjjjjjjjj",
"jjjjjjjjjjjjjjjjjjjjjjjjjjjjjjjjjjjjjjjjjjjjjjjjjjjjjjjjjjjjjjjj",
"jjjjjjjjjjjjjjjjjjjjjjjjjjjjjjjjjjjjjjjjjjjjjjjjjjjjjjjjjjjjjjjj",
"jjjjjjjjjjjjjjjjjjjjjjjjjjjjjjjjjjjjjjjjjjjjjjjjjjjjjjjjjjjjjjjj",
"jjjjjjjjjjjjjjjjjjjjjjjjjjjjjjjjjjjjjjjjjjjjjjjjjjjjjjjjjjjjjjjj",
"jjjjjjjjjjjjjjjjjjjjjjjjjjjjjjjjjjjjjjjjjjjjjjjjjjjjjjjjjjjjjjjj",
"jjjjjjjjjjjjjjjjjjjjjjjjjjjjjjjjjjjjjjjjjjjjjjjjjjjjjjjjjjjjjjjj",
"jjjjjjjjjjjjjjjjjjjjjjjjjjjjjjjjjjjjjjjjjjjjjjjjjjjjjjjjjjjjjjjj",
"jjjjjjjjjjjjjjjjjjjjjjjjjjjjjjjjjjjjjjjjjjjjjjjjjjjjjjjjjjjjjjjj",
"jjjjjjjjjjjjjjjjjjjjjjjjjjjjjjjjjjjjjjjjjjjjjjjjjjjjjjjjjjjjjjjj",
"jjjjjjjjjjjjjjjjjjjjjjjjjjjjjjjjjjjjjjjjjjjjjjjjjjjjjjjjjjjjjjjj",
"jjjjjjjjjjjjjjjjjjjjjjjjjjjjjjjjjjjjjjjjjjjjjjjjjjjjjjjjjjjjjjjj",
"jjjjjjjjjjjjjjjjjjjjjjjjjjjjjjjjjjjjj    jjjjjjjjjjjjjjjjjjjjjjj",
"jjjjjjjjjjjjjjjjjjjjjjjjjjjjjjjjjjj@      jjjjjjjjjjjjjjjjjjjjjj",
"jjjjjjjjjjjjjjjjjjjjjjjjjjjjjjjq98@ 66ee ,1.&=89qjjjjjjjjjjjjjjj",
"jjjjjjjjjjjjjjjjjjjjjjjjjjjjjjjjj+ e6606e @1.jjjjjjjjjjjjjjjjjjj",
"jjjjjjjjjjjjjjjjjjjjjjjjjjjjjj....@,,++06 @,.jjjjjjjjjjjjjjjjjjj",
"jjjjjjjjjjjjjjjjjjjjjjjjjjtdd@,<12gh2<<..+++.jjjjjjjjjjjjjjjjjjj",
"jjjjjjjjjjjjjjjjjjjjjjjj33w:ddd@@@@@@,554....jjjjjjjjjjjjjjjjjjj",
"jjjjjjjjjjjjjjj+   .jjj$ .@,OOOOO2g1,+ ,34@@@@.jjjjjjjjjjjjjjjjj",
"jjjjjjjjjjjjj5j%%3++   .+@,w>>>>,<1<,@. %%%%1<@.jjjjjjjjjjjjjjjj",
"jjjjjjjjjjj5%%5;uu3++@,<<<#$--%@55555@+ dddddddtw*jjjjjjjjjjjjjj",
"jjjjjjjjj5jjj%%;up34++++++%--%@5pssao5  :>>>>>>ww+jjjjjjjjjjjjjj",
"jjjjjjjjjjjjjjuuppu-%%%%%%%--%%%i2g<iu44OO::$34,<,.jjjjjjjjjjjjj",
"jjjjjjjjjjjjjj +@pp;-----------;u9r9,. 34>dffd>4,<@jjjjjjjjjjjjj",
"jjjjjjjjjjjjjj 98,uu-----------;+,<,@ 37  Odfffffd>.jjjjjjjjjjjj",
"jjjjjjjjjjjjj +@,,+--jj---------@<1r<@ 3   jj:::>dfffffffftwjjjj",
"jjjjjjjjjjjjj 8@,+ ;-jjj        @<11<,+ 77 jjjjj4:>>>>>>>>wwjjjj",
"jjjjjjjjjjjjj+@,.+X--jj         +,<<8,@     jjjj000yjjjjjjjjjjjj",
"jjjjjjjjjjjj =@,+ --j          j+@<<,,+      jjj0yyyyyyjjjjjjjjj",
"jjjjjjjjjjjj @,+  ;jjj        jj.@<<8,.   jjjjjj0jjjeyyyjjjjjjjj",
"jjjjjjjjjjj &@+..;jjjjjjjjjjjjjjj+,<,@ jjjjjjjjjjjjjjjjjjjjjjjjj",
"jjjj60e6.jj @,+.;jjjjjjjjjjjjjjjj.@<8+ jjjjjjjjjjjjjjjjjjjjjjjjj",
"jjj....**.66@+.;jjjjjjjjjjjjjjjjjj+,@...jjjjjjjjjjjjjjjjjjjjjjjj",
"jjj..... .6** ;jjjjjjjjjjjjjjjjjjj.@.....jjjjjjjjjjjjjjjjjjjjjjj",
"jjjj.....  6. jjjjjjjjjjjjjjjjjjjj  .....jjjjjjjjjjjjjjjjjjjjjjj",
"jjjjj..       jjjjjjjjjjjjjjjjjjjj ......jjjjjjjjjjjjjjjjjjjjjjj",
"jjjjjjj..     jjjjjjjjjjjjjjjjjjjj......jjjjjjjjjjjjjjjjjjjjjjjj",
"jjjjjjjjj.... jjjjjjjjjjjjjjjjjjjj.....jjjjjjjjjjjjjjjjjjjjjjjjj",
"jjjjjjjjjjj..jjjjjjjjjjjjjjjjjjjjj...jjjjjjjjjjjjjjjjjjjjjjjjjjj",
"jjjjjjjjjjjjjjjjjjjjjjjjjjjjjjjjjjjjjjjjjjjjjjjjjjjjjjjjjjjjjjjj",
"jjjjjjjjjjjjjjjjjjjjjjjjjjjjjjjjjjjjjjjjjjjjjjjjjjjjjjjjjjjjjjjj",
"jjjjjjjjjjjjjjjjjjjjjjjjjjjjjjjjjjjjjjjjjjjjjjjjjjjjjjjjjjjjjjjj",
"jjjjjjjjjjjjjjjjjjjjjjjjjjjjjjjjjjjjjjjjjjjjjjjjjjjjjjjjjjjjjjjj",
"jjjjjjjjjjjjjjjjjjjjjjjjjjjjjjjjjjjjjjjjjjjjjjjjjjjjjjjjjjjjjjjj",
"jjjjjjjjjjjjjjjjjjjjjjjjjjjjjjjjjjjjjjjjjjjjjjjjjjjjjjjjjjjjjjjj",
"jjjjjjjjjjjjjjjjjjjjjjjjjjjjjjjjjjjjjjjjjjjjjjjjjjjjjjjjjjjjjjjj",
"jjjjjjjjjjjjjjjjjjjjjjjjjjjjjjjjjjjjjjjjjjjjjjjjjjjjjjjjjjjjjjjj",
"jjjjjjjjjjjjjjjjjjjjjjjjjjjjjjjjjjjjjjjjjjjjjjjjjjjjjjjjjjjjjjjj",
"jjjjjjjjjjjjjjjjjjjjjjjjjjjjjjjjjjjjjjjjjjjjjjjjjjjjjjjjjjjjjjjj",
"jjjjjjjjjjjjjjjjjjjjjjjjjjjjjjjjjjjjjjjjjjjjjjjjjjjjjjjjjjjjjjjj",
"jjjjjjjjjjjjjjjjjjjjjjjjjjjjjjjjjjjjjjjjjjjjjjjjjjjjjjjjjjjjjjjj",
"jjjjjjjjjjjjjjjjjjjjjjjjjjjjjjjjjjjjjjjjjjjjjjjjjjjjjjjjjjjjjjjj",
"jjjjjjjjjjjjjjjjjjjjjjjjjjjjjjjjjjjjjjjjjjjjjjjjjjjjjjjjjjjjjjjj"
};
